<svg xmlns="http://www.w3.org/2000/svg" xmlns:xlink="http://www.w3.org/1999/xlink" viewBox="0 0 113.37 39.2"><defs><style>.cls-1{fill:none;}.cls-2{clip-path:url(#clip-path);}.cls-3{fill:#14181d;}.cls-4{fill:#dc4633;}.cls-5{fill:#a12e2b;}.cls-6{fill:#6d6e71;}</style><clipPath id="clip-path" transform="translate(-0.52)"><rect class="cls-1" y="13.41" width="114.54" height="26.53"/></clipPath></defs><g id="Layer_2" data-name="Layer 2"><g id="icon"><g class="cls-2"><polygon class="cls-3" points="57.21 25.35 60.53 20.43 65.94 20.43 61.14 27.54 66.09 34.98 60.68 34.98 57.21 29.74 57.21 34.98 52.73 34.98 52.73 14.14 57.21 14.14 57.21 25.35"/><g class="cls-2"><path class="cls-3" d="M113.89,25V35h-4.48V25.06a1.84,1.84,0,0,0-3.68,0V35h-4.47V14.14h4.47v6.75A5.1,5.1,0,0,1,113.89,25" transform="translate(-0.52)"/><path class="cls-3" d="M46.27,20.43v.72a7.8,7.8,0,1,0,0,13.1V35h4.48V20.43ZM42.7,31.5a4,4,0,1,1,4-4,4,4,0,0,1-4,4" transform="translate(-0.52)"/><path class="cls-3" d="M78.63,20.43v.72a7.8,7.8,0,1,0,0,13.1V35h4.48V20.43ZM75.06,31.5a4,4,0,1,1,4-4,4,4,0,0,1-4,4" transform="translate(-0.52)"/><path class="cls-3" d="M89.65,30.27a1.51,1.51,0,0,0,.23.76,1.71,1.71,0,0,0,.55.52,3.06,3.06,0,0,0,.85.32,5.19,5.19,0,0,0,1,.1,3.61,3.61,0,0,0,1.81-.36.81.81,0,0,0,.48-.7.58.58,0,0,0-.09-.33,1,1,0,0,0-.36-.3,4.58,4.58,0,0,0-.92-.35c-.41-.12-1-.24-1.59-.36a16,16,0,0,1-2.35-.65,7.53,7.53,0,0,1-1.88-1,4.73,4.73,0,0,1-1.28-1.37,3.57,3.57,0,0,1-.48-1.85,4.11,4.11,0,0,1,.47-1.9,5,5,0,0,1,1.34-1.56,6.7,6.7,0,0,1,2.07-1,9,9,0,0,1,2.69-.37,10,10,0,0,1,2.79.36,6.89,6.89,0,0,1,2.16,1,4.64,4.64,0,0,1,1.39,1.61,4.46,4.46,0,0,1,.49,2.05H94.46a1.25,1.25,0,0,0-.5-1,2.65,2.65,0,0,0-1.72-.45,3,3,0,0,0-1.65.37.89.89,0,0,0-.44.74.75.75,0,0,0,.08.37.9.9,0,0,0,.29.3,3.56,3.56,0,0,0,.79.34,11.63,11.63,0,0,0,1.4.29,19.9,19.9,0,0,1,2.46.55,7.66,7.66,0,0,1,2,.9,4.52,4.52,0,0,1,1.41,1.41,3.89,3.89,0,0,1,.52,2,4,4,0,0,1-.52,2,4.49,4.49,0,0,1-1.43,1.52,6.81,6.81,0,0,1-2.16,1,10.7,10.7,0,0,1-2.76.34,9.06,9.06,0,0,1-3-.45,7,7,0,0,1-2.2-1.17,5.13,5.13,0,0,1-1.38-1.7,4.31,4.31,0,0,1-.48-1.94Z" transform="translate(-0.52)"/></g><polygon class="cls-4" points="24.1 39.2 28.91 30.85 19.27 14.15 9.64 14.15 24.1 39.2"/><polygon class="cls-5" points="19.28 30.85 24.09 39.2 14.46 39.2 9.64 30.85 19.28 30.85"/><polygon class="cls-4" points="4.82 22.5 14.46 22.5 4.82 39.2 0 30.85 4.82 22.5"/></g><path class="cls-6" d="M.66,0h3.1A2.56,2.56,0,0,1,5.5.55a2,2,0,0,1,.63,1.64,2.13,2.13,0,0,1-.65,1.66,2.41,2.41,0,0,1-1.72.59H1.91V7.5H.66ZM4.57,3.06a1,1,0,0,0,.33-.83,1,1,0,0,0-.34-.82,1.46,1.46,0,0,0-1-.29H1.91V3.35H3.59A1.43,1.43,0,0,0,4.57,3.06Z" transform="translate(-0.52)"/><path class="cls-6" d="M8.09,7.25a2.54,2.54,0,0,1-1-1,3.19,3.19,0,0,1-.35-1.5,3.06,3.06,0,0,1,.35-1.46,2.55,2.55,0,0,1,1-1,2.85,2.85,0,0,1,1.44-.36A2.84,2.84,0,0,1,11,2.27a2.57,2.57,0,0,1,1,1,3.06,3.06,0,0,1,.35,1.46A3.15,3.15,0,0,1,12,6.22a2.47,2.47,0,0,1-1,1,2.76,2.76,0,0,1-1.44.37A2.85,2.85,0,0,1,8.09,7.25Zm2.25-.89a1.57,1.57,0,0,0,.57-.67,2.26,2.26,0,0,0,.2-1,2.18,2.18,0,0,0-.2-.93,1.51,1.51,0,0,0-.57-.65,1.43,1.43,0,0,0-.81-.24,1.51,1.51,0,0,0-.82.23,1.55,1.55,0,0,0-.56.65,2.06,2.06,0,0,0-.21.94,2.13,2.13,0,0,0,.21,1,1.55,1.55,0,0,0,.57.66,1.4,1.4,0,0,0,.81.24A1.43,1.43,0,0,0,10.34,6.36Z" transform="translate(-0.52)"/><path class="cls-6" d="M12.83,2h1.23l.85,3.15c0,.13.05.26.07.39A2.77,2.77,0,0,1,15,6h.12a4,4,0,0,1,0-.43,2,2,0,0,1,.08-.38l1-3.15h1l1,3.15a3.44,3.44,0,0,1,.11.81h.13c0-.19,0-.34,0-.45a1.82,1.82,0,0,1,.08-.36L19.42,2h1.24L19,7.5H17.89l-1-3.22a1.7,1.7,0,0,1-.09-.38c0-.1,0-.25,0-.44h-.12c0,.17,0,.31,0,.42s-.05.25-.09.4l-1,3.22H14.47Z" transform="translate(-0.52)"/><path class="cls-6" d="M22.5,7.24a2.48,2.48,0,0,1-1-1,3,3,0,0,1-.34-1.45,3.23,3.23,0,0,1,.31-1.41,2.48,2.48,0,0,1,.92-1.06,2.62,2.62,0,0,1,1.48-.4,2.91,2.91,0,0,1,1.35.31,2.4,2.4,0,0,1,1,.94,3,3,0,0,1,.38,1.54V5H23a5.45,5.45,0,0,1-.71,0l0,.15a.18.18,0,0,1,.12.08,1.16,1.16,0,0,1,.08.16c.05.14.09.22.1.25a1.64,1.64,0,0,0,.57.72A1.38,1.38,0,0,0,24,6.6a1.45,1.45,0,0,0,1.38-.92h1.2a2.85,2.85,0,0,1-.93,1.4,2.62,2.62,0,0,1-1.68.53A2.72,2.72,0,0,1,22.5,7.24Zm.18-3.12a.7.7,0,0,1,.27,0h1.94a.81.81,0,0,1,.29,0,.8.8,0,0,1,.27.12l.1-.13A.26.26,0,0,1,25.44,4a.89.89,0,0,1-.05-.13,1,1,0,0,0-.14-.33A1.38,1.38,0,0,0,24.71,3a1.65,1.65,0,0,0-.77-.18,1.62,1.62,0,0,0-.77.18,1.52,1.52,0,0,0-.54.53,1.48,1.48,0,0,0-.14.33.83.83,0,0,1,0,.12.44.44,0,0,1-.12.1l.09.13A.85.85,0,0,1,22.68,4.12Z" transform="translate(-0.52)"/><path class="cls-6" d="M27.78,1.94H29v.24a.9.9,0,0,1,0,.25,1.08,1.08,0,0,1-.11.21l.14.09a2,2,0,0,1,.7-.69,2.09,2.09,0,0,1,1-.2h.13V3h-.3a1.38,1.38,0,0,0-1,.35A2,2,0,0,0,29,4.82V7.5H27.78Z" transform="translate(-0.52)"/><path class="cls-6" d="M32.64,7.24a2.48,2.48,0,0,1-1-1,3,3,0,0,1-.35-1.45,3.38,3.38,0,0,1,.31-1.41,2.57,2.57,0,0,1,.93-1.06A2.62,2.62,0,0,1,34,1.91a3,3,0,0,1,1.35.31,2.32,2.32,0,0,1,1,.94,2.86,2.86,0,0,1,.38,1.54V5H33.13a5.37,5.37,0,0,1-.7,0l0,.15a.21.21,0,0,1,.12.08.62.62,0,0,1,.07.16l.11.25a1.64,1.64,0,0,0,.57.72,1.36,1.36,0,0,0,.84.27A1.46,1.46,0,0,0,35,6.34a1.38,1.38,0,0,0,.51-.66h1.2a2.76,2.76,0,0,1-.92,1.4,2.62,2.62,0,0,1-1.68.53A2.7,2.7,0,0,1,32.64,7.24Zm.17-3.12a.77.77,0,0,1,.27,0h2a.85.85,0,0,1,.29,0,1,1,0,0,1,.27.12l.1-.13c-.06,0-.1-.06-.11-.09a.81.81,0,0,1-.06-.13.93.93,0,0,0-.13-.33A1.44,1.44,0,0,0,34.85,3a1.65,1.65,0,0,0-.77-.18,1.59,1.59,0,0,0-.77.18,1.52,1.52,0,0,0-.54.53,1.48,1.48,0,0,0-.14.33.33.33,0,0,1-.05.12.57.57,0,0,1-.11.1l.08.13A1.14,1.14,0,0,1,32.81,4.12Z" transform="translate(-0.52)"/><path class="cls-6" d="M38.84,7.25a2.43,2.43,0,0,1-.85-1,3.46,3.46,0,0,1-.3-1.48A3.46,3.46,0,0,1,38,3.28a2.43,2.43,0,0,1,.85-1,2.27,2.27,0,0,1,1.27-.36A2.06,2.06,0,0,1,41,2.1a2.15,2.15,0,0,1,.71.68l.14-.08a.53.53,0,0,1-.11-.21.9.9,0,0,1,0-.25V0h1.16V7.5H41.75V7.27a.9.9,0,0,1,0-.25.44.44,0,0,1,.11-.2l-.14-.09a2.06,2.06,0,0,1-.71.68,1.88,1.88,0,0,1-.93.2A2.27,2.27,0,0,1,38.84,7.25Zm2.29-.88a1.49,1.49,0,0,0,.54-.66,2.24,2.24,0,0,0,.2-1,2.24,2.24,0,0,0-.2-.95,1.49,1.49,0,0,0-.54-.66,1.34,1.34,0,0,0-.79-.24,1.29,1.29,0,0,0-1.08.52,2.1,2.1,0,0,0-.4,1.33,2.1,2.1,0,0,0,.4,1.33,1.29,1.29,0,0,0,1.08.52A1.34,1.34,0,0,0,41.13,6.37Z" transform="translate(-0.52)"/><path class="cls-6" d="M48.84,7.41a2.06,2.06,0,0,1-.71-.68L48,6.82a.56.56,0,0,1,.11.2.9.9,0,0,1,0,.25V7.5H47V0h1.16V2.24a.9.9,0,0,1,0,.25A.71.71,0,0,1,48,2.7l.14.08a2.15,2.15,0,0,1,.71-.68,2,2,0,0,1,.93-.19A2.22,2.22,0,0,1,51,2.27a2.29,2.29,0,0,1,.85,1,3.32,3.32,0,0,1,.31,1.48,3.32,3.32,0,0,1-.31,1.48,2.29,2.29,0,0,1-.85,1,2.22,2.22,0,0,1-1.26.36A1.86,1.86,0,0,1,48.84,7.41Zm1.78-1.32A2.17,2.17,0,0,0,51,4.76a2.17,2.17,0,0,0-.4-1.33,1.3,1.3,0,0,0-1.09-.52,1.33,1.33,0,0,0-.78.24,1.49,1.49,0,0,0-.54.66,2.1,2.1,0,0,0-.2.95,2.1,2.1,0,0,0,.2,1,1.49,1.49,0,0,0,.54.66,1.33,1.33,0,0,0,.78.24A1.3,1.3,0,0,0,50.62,6.09Z" transform="translate(-0.52)"/><path class="cls-6" d="M53.52,8.52h.58a.66.66,0,0,0,.74-.5L55,7.48,53,2h1.26l1.2,3.46a3.73,3.73,0,0,1,.14.66h.11a2.87,2.87,0,0,1,.14-.66L56.92,2h1.26L55.94,8.3a2.12,2.12,0,0,1-.58.95,1.55,1.55,0,0,1-1,.26h-.88Z" transform="translate(-0.52)"/></g></g></svg>